<?xml version="1.0" encoding="utf-8"?>
<!-- Generator: Adobe Illustrator 18.0.0, SVG Export Plug-In . SVG Version: 6.00 Build 0)  -->
<!DOCTYPE svg PUBLIC "-//W3C//DTD SVG 1.1//EN" "http://www.w3.org/Graphics/SVG/1.1/DTD/svg11.dtd">
<svg version="1.1" id="Layer_1" xmlns="http://www.w3.org/2000/svg" xmlns:xlink="http://www.w3.org/1999/xlink" x="0px" y="0px"
	 viewBox="0 0 404.9 210.8" enable-background="new 0 0 404.9 210.8" xml:space="preserve">
<path fill="#8BC84C" d="M254.1,15.8h-16c-1.5,0-2.3,0.8-2.3,2.3v46.2c0,1.5-0.8,2.3-2.3,2.3H215c-1.5,0-2.3-0.8-2.3-2.3v-62
	c0-1.5-0.8-2.3-2.3-2.3h-0.3h-15.7h-0.3c-1.5,0-2.3,0.8-2.3,2.3v62c0,1.5-0.8,2.3-2.3,2.3H171c-1.5,0-2.3-0.8-2.3-2.3V18.1
	c0-1.5-0.8-2.3-2.3-2.3h-16c-1.5,0-2.3,0.8-2.3,2.3v118.3c0,1.5,0.8,2.3,2.3,2.3h16c1.5,0,2.3-0.8,2.3-2.3V88.7
	c0-1.5,0.8-2.3,2.3-2.3h18.6c1.5,0,2.3,0.8,2.3,2.3v63.5c0,1.5,0.8,2.3,2.3,2.3h0.3h15.7h0.3c1.5,0,2.3-0.8,2.3-2.3V88.7
	c0-1.5,0.8-2.3,2.3-2.3h18.6c1.5,0,2.3,0.8,2.3,2.3v47.7c0,1.5,0.8,2.3,2.3,2.3h16c1.5,0,2.3-0.8,2.3-2.3V18.1
	C256.4,16.6,255.6,15.8,254.1,15.8z"/>
<g>
	<path fill="#FFFFFF" d="M3.6,186.5c0.3,0,0.4,0.2,0.4,0.4v9.2c0,0.3,0.2,0.4,0.4,0.4h3.7c0.3,0,0.4-0.2,0.4-0.4v-9.2
		c0-0.3,0.2-0.4,0.4-0.4h3.2c0.3,0,0.4,0.2,0.4,0.4v23.4c0,0.3-0.2,0.4-0.4,0.4H9.1c-0.3,0-0.4-0.2-0.4-0.4v-9.4
		c0-0.3-0.2-0.4-0.4-0.4H4.5c-0.3,0-0.4,0.2-0.4,0.4v9.4c0,0.3-0.2,0.4-0.4,0.4H0.4c-0.3,0-0.4-0.2-0.4-0.4v-23.4
		c0-0.3,0.2-0.4,0.4-0.4H3.6z"/>
	<path fill="#FFFFFF" d="M36.8,210.8c-0.3,0-0.4-0.2-0.4-0.4v-23.4c0-0.3,0.2-0.4,0.4-0.4h3.2c0.3,0,0.4,0.2,0.4,0.4v23.4
		c0,0.3-0.2,0.4-0.4,0.4H36.8z"/>
	<path fill="#FFFFFF" d="M75.2,210.4c0,0.3-0.2,0.4-0.4,0.4H64.4c-0.3,0-0.4-0.2-0.4-0.4v-23.4c0-0.3,0.2-0.4,0.4-0.4h3.2
		c0.3,0,0.4,0.2,0.4,0.4v19.5c0,0.3,0.2,0.4,0.4,0.4h6.2c0.3,0,0.4,0.2,0.4,0.4V210.4z"/>
	<path fill="#FFFFFF" d="M109,210.4c0,0.3-0.2,0.4-0.4,0.4H98.3c-0.3,0-0.4-0.2-0.4-0.4v-23.4c0-0.3,0.2-0.4,0.4-0.4h3.2
		c0.3,0,0.4,0.2,0.4,0.4v19.5c0,0.3,0.2,0.4,0.4,0.4h6.2c0.3,0,0.4,0.2,0.4,0.4V210.4z"/>
	<path fill="#FFFFFF" d="M158.2,186.5c0.3,0,0.4,0.2,0.4,0.4v9.2c0,0.3,0.2,0.4,0.4,0.4h3.7c0.3,0,0.4-0.2,0.4-0.4v-9.2
		c0-0.3,0.2-0.4,0.4-0.4h3.2c0.3,0,0.4,0.2,0.4,0.4v23.4c0,0.3-0.2,0.4-0.4,0.4h-3.2c-0.3,0-0.4-0.2-0.4-0.4v-9.4
		c0-0.3-0.2-0.4-0.4-0.4h-3.7c-0.3,0-0.4,0.2-0.4,0.4v9.4c0,0.3-0.2,0.4-0.4,0.4H155c-0.3,0-0.4-0.2-0.4-0.4v-23.4
		c0-0.3,0.2-0.4,0.4-0.4H158.2z"/>
	<path fill="#FFFFFF" d="M202.8,188.3c0.2,0.2,0.2,0.3,0.2,0.5v19.7c0,0.2-0.1,0.4-0.2,0.5l-1.5,1.5c-0.2,0.2-0.3,0.2-0.5,0.2h-7.6
		c-0.2,0-0.4-0.1-0.5-0.2l-1.5-1.5c-0.2-0.2-0.2-0.3-0.2-0.5v-19.7c0-0.2,0.1-0.4,0.2-0.5l1.5-1.5c0.2-0.2,0.3-0.2,0.5-0.2h7.6
		c0.2,0,0.4,0.1,0.5,0.2L202.8,188.3z M198.2,190.5h-2.4c-0.2,0-0.4,0.1-0.5,0.2c-0.2,0.2-0.2,0.3-0.2,0.5v14.9
		c0,0.2,0.1,0.4,0.2,0.5c0.2,0.2,0.3,0.2,0.5,0.2h2.4c0.2,0,0.4-0.1,0.5-0.2c0.2-0.2,0.3-0.3,0.3-0.5v-14.9c0-0.2-0.1-0.4-0.3-0.5
		C198.6,190.5,198.4,190.5,198.2,190.5z"/>
	<path fill="#FFFFFF" d="M237.9,210.4c0,0.3-0.2,0.4-0.4,0.4h-10.3c-0.3,0-0.4-0.2-0.4-0.4v-23.4c0-0.3,0.2-0.4,0.4-0.4h3.2
		c0.3,0,0.4,0.2,0.4,0.4v19.5c0,0.3,0.2,0.4,0.4,0.4h6.2c0.3,0,0.4,0.2,0.4,0.4V210.4z"/>
	<path fill="#FFFFFF" d="M271.7,210.4c0,0.3-0.2,0.4-0.4,0.4H261c-0.3,0-0.4-0.2-0.4-0.4v-23.4c0-0.3,0.2-0.4,0.4-0.4h3.2
		c0.3,0,0.4,0.2,0.4,0.4v19.5c0,0.3,0.2,0.4,0.4,0.4h6.2c0.3,0,0.4,0.2,0.4,0.4V210.4z"/>
	<path fill="#FFFFFF" d="M294.8,210.8c-0.3,0-0.4-0.2-0.4-0.4v-23.4c0-0.3,0.2-0.4,0.4-0.4h3.2c0.3,0,0.4,0.2,0.4,0.4v23.4
		c0,0.3-0.2,0.4-0.4,0.4H294.8z"/>
	<path fill="#FFFFFF" d="M332.1,186.5c0.2,0,0.4,0.1,0.5,0.2l1.5,1.5c0.2,0.2,0.2,0.3,0.2,0.5v19.7c0,0.2-0.1,0.4-0.2,0.5l-1.5,1.5
		c-0.2,0.2-0.3,0.2-0.5,0.2h-9.5c-0.3,0-0.4-0.2-0.4-0.4v-23.4c0-0.3,0.2-0.4,0.4-0.4H332.1z M329.5,206.9c0.2,0,0.4-0.1,0.5-0.2v0
		c0.2-0.2,0.2-0.3,0.2-0.5v-14.9c0-0.2-0.1-0.4-0.2-0.5c-0.2-0.2-0.3-0.3-0.5-0.3h-2.8c-0.3,0-0.4,0.2-0.4,0.4v15.6
		c0,0.3,0.2,0.4,0.4,0.4H329.5z"/>
	<path fill="#FFFFFF" d="M366.7,206c-0.1-0.3-0.2-0.4-0.5-0.4H362c-0.3,0-0.4,0.1-0.5,0.4l-0.9,4.5c-0.1,0.3-0.2,0.4-0.5,0.4h-3.2
		c-0.3,0-0.5-0.2-0.4-0.5l5.5-23.5c0.1-0.3,0.2-0.4,0.5-0.4h3.1c0.3,0,0.4,0.1,0.5,0.4l5.5,23.5c0.1,0.3-0.1,0.5-0.4,0.5h-3.2
		c-0.3,0-0.4-0.1-0.5-0.4L366.7,206z M365.3,201.6c0.3,0,0.5-0.2,0.4-0.5l-1.3-6.4c-0.1-0.4-0.4-0.4-0.5,0l-1.3,6.4
		c-0.1,0.3,0.1,0.5,0.4,0.5H365.3z"/>
	<path fill="#FFFFFF" d="M399.5,210.4c0,0.3-0.2,0.4-0.4,0.4h-3.1c-0.3,0-0.4-0.2-0.4-0.4v-7.7c0-0.2,0-0.4-0.1-0.5l-5.3-15.1
		c-0.1-0.3,0-0.5,0.4-0.5h3.5c0.3,0,0.4,0.1,0.5,0.4l2.8,8.9c0.1,0.4,0.4,0.4,0.6,0l2.8-8.9c0.1-0.3,0.3-0.4,0.5-0.4h3.5
		c0.3,0,0.5,0.2,0.4,0.5l-5.3,15.1c-0.1,0.2-0.1,0.3-0.1,0.5V210.4z"/>
</g>
</svg>
