<?xml version="1.0" encoding="utf-8"?>
<!-- Generator: Adobe Illustrator 19.0.1, SVG Export Plug-In . SVG Version: 6.00 Build 0)  -->
<svg version="1.1" id="Layer_1" xmlns="http://www.w3.org/2000/svg" xmlns:xlink="http://www.w3.org/1999/xlink" x="0px" y="0px"
	 viewBox="0 0 1224 648" style="enable-background:new 0 0 1224 648;" xml:space="preserve">
<style type="text/css">
	.st0{fill:#4C4A4D;}
	.st1{fill:#F5F4EE;stroke:#4C4A4D;stroke-width:0.25;stroke-linecap:round;stroke-linejoin:round;stroke-miterlimit:10;}
</style>
<g id="LeBlanc">
	<g>
		<g>
			<g>
				<path class="st0" d="M308.8,627.2c-1.5,0-3-0.1-4.4-0.4c-8.4-1.4-14.7-5.6-17.4-7.7c-18.7-10.5-12.2-41.3-5.6-63.5
					c6.2-21,14.9-41,16.2-44l19-54.2l17.3-51l14.8-49.1l5.4-16.9c2-12.4,12.7-19.7,28.7-19.7c7.9,0,15.2,1.6,17.5,2.2
					c8.8,1.6,15.1,5.6,18.6,12c4.8,8.7,2.1,17.9,1.1,20.7l-9.2,29.3l-17.6,54.2l-36.1,109c19.4-4.3,32.8-6.5,40-6.5
					c2.1,0,3.8,0.2,5.2,0.6c11.8,3.2,18.4,8.8,19.6,16.7c1.3,8.7-4.9,15.9-11.1,19.8l-0.5,0.3l-75.1,36.8l-1.3,0.3
					c-1.1,0.3-2.6,1.2-4.2,2.7C323.9,624.1,316.5,627.2,308.8,627.2z"/>
			</g>
			<g>
				<path class="st0" d="M962.5,493c-11.4,0-21.1-7.2-24-9.7c-9.8-6.9-7-21.3-5.9-25.8l4.3-19.4c-5.8,1.9-11.2,2.8-16.2,2.8
					c-22.3,0-30.8-17.8-32.2-27.3l-2.7-17.9l17.1,5.8c1.3,0.5,2.7,0.7,4,0.7c10.4,0,20.9-13.3,24.1-18.5l0.6-1.1l0.9-0.9
					c1.7-1.9,13.6-19.4,28.4-42.4l0.4-0.6l0.5-0.6c9.9-11.8,23.4-14.2,33-14.2c3.7,0,6.5,0.4,8,0.6c10.9,0.7,18,4.7,21.2,11.6
					c0.6,1.4,1.1,2.8,1.3,4.1l5.3-6.7c6.8-8.1,16.7-12.2,29.3-12.2c11.7,0,22,3.8,22.5,3.9l0.1,0c8.2,3.3,11.2,8.6,12.4,12.6
					c0.3,1.1,0.5,2.2,0.6,3.3c3.6-6.5,7.5-12.4,11.9-17.8c9.7-11.8,18-16.5,19.5-17.3l0.5-0.2c9.9-4.5,19.4-6.7,28.2-6.7
					c35,0,46.8,34.7,46.9,35l0.1,0.4c3.8,13.5-0.6,26.7-12.3,37.2c-7.7,6.9-16.1,10.5-17,10.9c-4.8,2.1-8.5,3-11.7,3
					c-5.2,0-9.6-2.6-11.7-6.9c-0.2-0.5-0.5-1-0.7-1.6c-0.1,0.1-0.1,0.2-0.1,0.3l-0.1,0.9l-0.6,1.2c-9.2,22.8-9.1,34-8.9,36.9
					c18.6-6.2,33.8-26.7,34-26.9l0.3-0.4l0.1-0.1c13.5-16.4,18.6-19.3,24.5-19.3c4.1,0,7.9,2.1,10.2,5.5c3.7,5.7,2.4,14.3-4.4,29.7
					l-0.1,0.1c-9.1,19-20.4,33.9-33.5,44.1c-10,7.8-17.7,10.1-18.9,10.4c-6.7,2-13.2,3-19.4,3c-17.6,0-32.4-8-42.9-23.1
					c-7.6,16.7-13.7,23.6-17.7,26.5c-9.7,8.1-19.6,12.2-29.4,12.2c-16.8,0-26.8-11.6-29.8-15.7c-3.9-4.1-6.7-9.6-8.5-16.5
					c-1.4,2.8-2.7,5.7-4.1,8.5c-8.2,20.8-17.3,29.4-20.1,31.6C974.8,490.8,969,493,962.5,493z M1079.5,382.4c0.3-0.4,0.6-0.8,1-1.1
					c0.2-0.8,0.4-1.5,0.6-2.2L1079.5,382.4z"/>
			</g>
			<g>
				<path class="st0" d="M715.4,533.4c-10.1,0-24.7-3.1-37.1-17.6c-5.4-4.3-16.4-17.6-14.1-54.2c-0.1-5.7,0-47.9,31-107.7
					c2.9-6.9,26.4-60.3,64.6-95.1l0.5-0.4l0.5-0.4c1.9-1.4,19.1-13.3,36.7-13.3c18.2,0,30.8,12.5,34.6,34.2l0.2,0.9l0,0.9
					c0,1.5,0.2,37.4-14.5,68.7c-0.6,1.6-3.5,8.4-8.4,18.1c11.1-13,24.2-22.8,38.8-23.8c3.4-0.8,11.3-2.4,20.6-2.4
					c13.9,0,38,3.9,44.2,29.7l0.1,0.4l0.1,0.5c0.5,3.6,1.7,16.1-5.6,24.6c-0.5,0.5-0.9,1-1.5,1.5c1.6,4.2,2,9.1,1,14.6l-0.1,0.7
					l-2.2,6.9c1.6-0.6,3.1-0.9,4.6-0.9c4,0,7.5,1.8,9.8,5.1c3.8,5.5,2.6,12-1,22.2c-0.8,2.8-3.5,11.6-8.9,21.2
					c-8.6,15.2-20.1,25-33.2,28.2c-1.7,0.7-4.4,1.5-7.5,1.5c-6.7,0-15-3.1-20.4-16c-1.8,3-3.9,6.4-6.2,9.8
					c-10.2,15.1-18.5,22.5-26.9,23.9c-2.1,0.6-6,1.5-11,1.5c-7.9,0-21.6-2.3-31.2-16.5c-10,14.8-22.9,24.9-37.3,29.1
					C733,530.5,725.2,533.4,715.4,533.4z M729.7,457.3c-3.4,12.4-4.7,22.5-4.7,28c6-3.9,19.8-15.8,47.8-51.8
					c1.6-4.3,4.9-12.6,9.6-22.4C769,428.6,751.2,446.9,729.7,457.3z M774.3,341.9c-5,8.5-9.6,17.4-13.9,26.1
					C766.5,358.5,771,349.6,774.3,341.9z"/>
			</g>
			<g>
				<path class="st0" d="M523.5,591.7c-20.5,0-35-5.8-43.3-17.2c-1.8-2.5-3.3-5.3-4.4-8.2c-10.7,7.5-21.9,11.3-33.3,11.3
					c-20.3,0-34.2-12.1-37.2-15c-16.4-13.4-22.4-34.7-17.4-61.6c3.2-17.3,9.9-31.3,11.4-34.3c18.9-44.2,44.5-53.5,62.6-53.5
					c10.1,0,17.5,3,19.8,4.1c11,4.2,19.2,10.4,24.3,18.6c8.7-25.9,12.8-44.7,12.9-44.9l0-0.1c0.1-0.4,12-49,18.4-71.8
					c6.7-23.7,22.1-28,28.4-28.8c1.7-0.2,3.1-0.5,4.3-0.8c23-6.7,43.2-10,60.2-10c40.7,0,52.5,19.1,55.4,25.6
					c9.7,15.9,13.5,43.5-22.9,85.1c-9.9,11.3-20.6,21.2-29.3,28.6c13.5,6.5,23.3,15.1,29.3,25.7c5.5,9.8,5.5,17.9,5.5,18.8l0,0.5
					l0,0.5c-4.1,37.7-26.4,71.4-64.4,97.4c-28,19.2-54.7,27.5-55.8,27.9l-0.8,0.2l-0.8,0.1C538,591.1,530.3,591.7,523.5,591.7z
					 M448,521.8c-0.9,5.1-1.1,8.3-1,10.4c2.5-1,6.7-3.3,13.1-8.3C456,523.8,452,523.1,448,521.8z M537.8,530.9
					c13-4,33.6-15.8,58.8-49.2c7.3-10.4,11.6-20.1,13.3-25.6c-11.4,4.8-36,16.2-59.4,34.2L537.8,530.9z M595.9,374.2
					c22.6-18.8,35.1-38.4,39.6-46.2c-6.7,2.5-16,7.2-25.1,12.7L595.9,374.2z"/>
			</g>
		</g>
	</g>
	<g>
		<path class="st1" d="M359.4,361.7L344.6,411l-17.4,51.3L308.1,517c0,0-37.5,83.5-14.7,94.3c0,0,5.3,4.8,13,6
			c5.8,0.9,11.7-1.3,16-5.4c2.2-2.1,5.5-4.6,9.3-5.4l73.5-36c0,0,17-10.5-5.7-16.5c0,0-5.8-2.4-58.7,10.6L383,437l17.6-54.1
			l9.3-29.6c0,0,6.4-15.4-11.6-18.3c0,0-31.2-8.3-33.1,9.2L359.4,361.7z"/>
		<path class="st1" d="M899.5,413.4c0,0,5.3,35.5,53.1,6.5l-9.2,41.5c0,0-3,11.6,1.9,14.4c0,0,15.7,14.2,27.5,3.6
			c0,0,8.8-6.4,17-27.5c0,0,20.9-43.9,24.7-47.5c0,0-7.2,39.5,6.5,52.7c0,0,16.4,25.3,44.1,1.8c0,0,9.5-5.1,23.7-45.9
			c0,0,10.5,52.3,60,37.7c0,0,25.4-6.7,45.3-48.6c0,0,18.4-41.2-11.7-4.5c0,0-17.8,24.7-41.1,31.4c0,0-13,5.2-12.3-7.6
			c0,0-3.9-12,9.3-44.6c0,0,1.1-8.4,19-25.3c0,0,12.4-10.4,9.2,1.7c0,0,1.4,1.6-4.7,16.8c0,0-8.2,10.7,7.3,4c0,0,29.4-12,23-34.9
			c0,0-13.9-42.5-60-21.7c0,0-28.9,15.1-41.6,70.9c0,0-4.9,3.5-9.6,15.2c0,0-18,25-26.8,30.6c0,0-2.9-14.7,9.7-42.1l18.9-41.7
			c0,0,6.4-8.9-4-13.1c0,0-26.9-9.9-39.4,4.9l-25.2,31.9c0,0-20.1,29.4-23.8,30.9l21.8-53c0,0,10.6-13.7-10.4-14.9
			c0,0-19.7-4.1-31.3,9.8c0,0-25.8,40-29.8,44.1C940.6,390.9,922.3,421.1,899.5,413.4z"/>
		<path class="st1" d="M898.3,442.5c-18.4,18-11.1-1.3-11.1-1.3l9.2-29.2c3.8-21.3-23-14.7-23-14.7c-6.3,1.1-13.2,15-13.2,15
			c-13,21.7-48,62.3-48,62.3c1.9-11,14.6-32.1,14.6-32.1c16.2-29.3,40.4-53,40.4-53c15.7-10.1,15.9-1.4,15.9-1.4
			c-1.2,3.5,5.2,5.2,5.2,5.2c17.6,4.1,14.3-18.4,14.3-18.4c-7.3-30.9-52.5-18.9-52.5-18.9c-37.4,1-67.3,84.2-67.3,84.2
			c-98.2,127-61.9,10.4-61.9,10.4c54.5-22.6,87.2-104.3,87.2-104.3c14-29.5,13.6-64.2,13.6-64.2c-8.3-46.8-54.1-13.9-54.1-13.9
			c-38.4,35-62,91.7-62,91.7c-31.8,61.2-29.9,103.2-29.9,103.2c-2.6,38.6,10.6,45.9,10.6,45.9c19.4,24.1,45.9,11.4,45.9,11.4
			c30.7-8.6,42.5-45.9,42.5-45.9c7.1,42.2,38.5,31.4,38.5,31.4c12.1-1,31.2-37.8,31.2-37.8l9.8-16.5c1.6,45.6,18.7,35.4,18.7,35.4
			c25.7-5.5,35.2-42.3,35.2-42.3C918,416.8,898.3,442.5,898.3,442.5z M789.1,304.3c0,0,9.2-13.9,6.5,6.9c0,0-2.9,30.8-29.8,70.5
			c0,0-29,38.4-40.3,43.1C725.5,424.7,754.8,340.4,789.1,304.3z"/>
		<path class="st1" d="M675.9,311.4c0,0-11.5-36.4-102.6-10c-1.9,0.6-4,0.9-6,1.2c-4.5,0.5-14.3,3.7-19.2,20.9
			c-6.4,22.6-18.3,71.2-18.3,71.2s-6.9,32.2-22.5,71.5l-12.6,42.1c0,0-77.8,84.4-54.1-1c0,0,34.6,26.5,54.5-23.3
			c0,0,22.6-40.1-17.6-55.1c0,0-40.7-20.9-68.2,44c0,0-29.4,56.7,3.3,83c0,0,33.6,34.4,73.1-12.3c0,0-15.8,48.5,58.9,36.8
			c0,0,103.4-31.9,112.5-115.9c0,0,0.6-27.7-45.7-40.7C611.6,423.6,704.8,356,675.9,311.4z M474,464.2c0,0,4.6,23.8-19.4,33
			c0,0-4.6,2.3-7.7-1.7C446.9,495.6,466.8,454.7,474,464.2z M605.7,489.5c-47.7,63.2-83.1,55.3-83.1,55.3l18.6-59.7
			c34.7-27.5,71.8-40.7,71.8-40.7C636.3,445.9,605.7,489.5,605.7,489.5z M647.6,330.6c0,0-21.7,45.5-76.5,75.2l30.9-71.3
			C601.9,334.5,662.4,296.2,647.6,330.6z"/>
	</g>
</g>
<g id="Kyle">
	<g>
		<g>
			<path class="st0" d="M516.5,282.6c-23,0-40.2-16.9-48.4-26.9l-0.5-0.7l-0.4-0.7c-0.8-1.4-8-14.3-7.3-35.7
				c1.1-34.4,22-64.5,39.2-83.6c5.5-6.1,12.6-10.5,20.4-12.6c7.8-2.1,15.2-3.2,22.1-3.2c13.7,0,24.4,4.2,32,12.5
				c8.6,9.5,12.2,23.6,10.5,42l-0.1,0.6l-0.1,0.6c-0.2,0.8-1.4,6.4-4.2,13.8c0.2,0,0.3,0,0.5,0c4.2,0,8.1,2.1,10.4,5.5
				c4.1,6.1,2.3,13.8-2,24.3c-1.9,5.6-18.4,51.2-61.6,62.7C525.2,281.7,521.6,282.6,516.5,282.6z M522.6,226.7
				c-0.5,3.9-0.7,7.1-0.6,9.3c0.7-0.4,1.4-0.8,2.3-1.4l1-0.6l1.1-0.4c0,0,0,0,0,0c0,0,3.2-1.4,8.5-5.2c-0.1,0-0.2,0-0.4,0
				C530.6,228.3,526.6,227.8,522.6,226.7z"/>
		</g>
		<g>
			<path class="st0" d="M239.3,448c-4.4,0-8.8-1-13.1-2.9l-9.7-4.4l4.1-9.9c11.7-27.8,28.8-69.6,40.3-100.1
				c-3.2,0.9-6.5,1.4-9.7,1.4c-9.2,0-18.2-3.7-26.6-11.1l-0.2-0.2c-1.2-1.1-6.9-6.9-11-17c-3.8-9.4-6.7-24.6,0.9-43
				c0.9-2.5,13.9-40.3,19.7-67.9l0.1-0.3c-3-0.7-11.1-2.5-11.1-2.5l6.7-12.7c0.6-1.2,6.4-11.3,22.7-11.3c5.1,0,10.8,1,17,3
				c4.2,0.8,17.2,4,24.6,16.1c5.2,8.6,6.3,19.1,3.1,31.4c10-18.6,16.3-37,18.7-54.9l1-7.3l7.1-1.9c0.8-0.2,4.7-1.2,9.8-1.2
				c9.7,0,17.5,3.5,22.6,10c6.3,8.1,7.6,20.1,3.6,35.5c-0.5,2.4-13.8,62-34.1,122.2c-14.6,43.3-28.5,74.7-42.6,96
				C268.7,437.3,254.3,448,239.3,448L239.3,448z"/>
		</g>
		<g>
			<path class="st0" d="M49.1,390.4c-9,0-22.1-4.4-33.9-25.1l-4-7.1l2.1-1.2c-0.1-12.1,6.6-36,20.5-72.8
				c21.7-62.4,54.6-160.4,57-176.2c-0.2-2.8,0.4-6.9,3.4-11c4.9-6.4,13.8-9.5,27.2-9.5c0.9,0,1.7,0,2.7,0c1.9,0,19.2,0.8,27.8,11.7
				c4.2,5.4,5.7,12,4.1,19.3l-0.1,0.5l-11.4,37.6c17.7-33.1,22.6-52.5,23.8-60.1l0.8-4.6l3.8-2.6c1.5-1,7-4.4,16.4-4.4
				c5.3,0,10.9,1.1,16.7,3.2c6.2,1.2,17,4.3,20.9,12.5c1.8,3.6,1.9,7.8,0.6,11.6c-0.9,8.1-6,31.2-32.1,78.2
				c-1.2,2.4-23.1,44.7-53.7,77.7c5.1,10.9,10.2,21.5,14.4,29.6c0.4-1.2,0.7-2.4,1-3.7l0.5-2.2l1.3-1.8c0.9-1.2,5.6-6.9,13.6-6.9
				c9.6,0,16.9,7.8,21.8,23.3c1.4,3,5.5,12.7,6.6,24.1c1.7,16.9-3.9,30.5-16,39.3c-2.5,2.2-11.1,8.7-23.5,8.7
				c-11.4,0-22.4-5.2-32.7-15.5c-3.9-3.1-21.1-18-34.8-46.5c-8.7,26.7-13.4,42.9-13.6,45.5c0,5.8-3.5,12.8-9.1,18.4
				C64.9,386.9,57.1,390.4,49.1,390.4L49.1,390.4z"/>
		</g>
		<g>
			<path class="st0" d="M397.4,304.7c-0.8,0-1.2,0-1.2,0c-15.8-1-28.1-7.6-36.4-19.6c-10.6-15.4-14.1-39-10.4-70.3
				c2.6-22.2,8.1-40.9,9.2-44.7c4.7-20.2,40.1-84.3,44.1-91.6c12.7-23.3,39.4-62.4,74.9-62.4c3.4,0,6,0.4,7.6,0.8
				c9,1.2,16.3,5.7,21,13.1c15.1,23.6-0.9,71.9-2.8,77.3l-0.1,0.3c-16.1,40.9-35.2,73-57,95.7c-14.4,15-26.7,22.2-33.4,25.4
				c-3.6,15.3-4.4,24-4.4,28.6c3.3-2.4,8.7-7,16.9-16.2c9.5-10.5,20.6-24.6,29.7-37.7l23.6-33.8l-3.6,41.1
				C467.3,302.1,404.5,304.7,397.4,304.7z M455.7,114.6c-4.9,8.5-9.4,17.2-13.4,25.5C448.2,130.8,452.5,122.2,455.7,114.6z"/>
		</g>
	</g>
</g>
<g id="Kyle_1_">
	<path class="st1" d="M573.7,203.2c-23.4,32.4-43.4,40.2-43.4,40.2c-30.5,19.9-15.7-32.4-15.7-32.4c45,25.3,58.5-38.7,58.5-38.7
		c4.4-48.9-32.9-44.5-50.8-39.7c-5.8,1.6-11,4.8-15.1,9.3c-56.3,62.4-30.6,106.4-30.6,106.4c24.4,29.9,47.3,21.9,47.3,21.9
		c39.7-10.3,54.3-55.9,54.3-55.9C588.4,189.2,573.7,203.2,573.7,203.2z M523.9,189.9c12.6-23.8,22.7-25.1,22.7-25.1
		c2.8,12.9-2.8,22-2.8,22c-9.9,17.1-21.1,13.9-21.1,13.9C516.6,201,523.9,189.9,523.9,189.9z"/>
	<path class="st1" d="M258.9,284.6c0,0,58.6-53.5,67.8-121.7c0,0,32.6-8.7,22.5,31.1c0,0-59.1,267.6-118.5,240.7
		c0,0,53.9-128.4,52.5-138.3c0,0-22.1,41.6-51.3,15.9c0,0-19.6-18.6-7.2-48c0,0,14-39.7,20.2-69.6c0,0,4.2-10.4-5.4-12.6
		c0,0,5.3-10.1,27.4-2.7c0,0,31.2,3.7,17.6,40.5L258.9,284.6z"/>
	<path class="st1" d="M128.8,266.2c0,0,23.8,51.7,27.7,53.5c0,0,6.8-5.9,11.2-23.4c0,0,8.6-11.4,16.3,13.8c0,0,17.5,34.4-6,50.8
		c0,0-18.2,17.8-42-6.4c0,0-29.5-22.6-42.7-71.1c0,0-24,69.8-24,78.4c0,8.6-23.2,35.5-44.7-2.2c0,0-5.6-5.3,19.3-71.8
		c0,0,56.5-162.6,57.7-180c0,0-2.8-10.2,21.9-9.5c0,0,25.1,0.6,21.5,17.7l-34.7,114.4c0,0,59.9-80.6,68.7-132.4
		c0,0,8.1-5.7,23.9,0.5c0,0,18.1,2.8,13.6,10.7c0,0-0.2,20.5-31,75.8c0,0-23.6,46.8-57,80.5L128.8,266.2z"/>
	<path class="st1" d="M483.1,27.3c0,0-34.3-10.7-70.8,56.1c0,0-39,70.4-43.1,89.1c0,0-36.3,117,27.4,120.9c0,0,60,2.8,67.5-84.1
		c0,0-90.3,129.6-60.7,10.9c0,0,48.9-13.8,89.5-116.8C493,103.3,517.9,30.9,483.1,27.3z M407.7,196.4l-0.2-1
		c0,0,27.3-84.8,67.2-126.5C474.7,69,485.2,125.3,407.7,196.4z"/>
</g>
</svg>
